<?xml version="1.0" encoding="utf-8"?>
<!-- Generator: Adobe Illustrator 18.0.0, SVG Export Plug-In . SVG Version: 6.00 Build 0)  -->
<!DOCTYPE svg PUBLIC "-//W3C//DTD SVG 1.1//EN" "http://www.w3.org/Graphics/SVG/1.1/DTD/svg11.dtd">
<svg version="1.1" id="Layer_1" xmlns="http://www.w3.org/2000/svg" xmlns:xlink="http://www.w3.org/1999/xlink" x="0px" y="0px"
	 viewBox="0 0 612 792" enable-background="new 0 0 612 792" xml:space="preserve">
<g>
	<g>
		<circle fill="#333333" cx="305.8" cy="395.5" r="303.6"/>
	</g>
	<path fill="#FFFFFF" d="M417.1,480.6H194.6c-5.1,0-9.4-1.8-13.1-5.5c-3.7-3.6-5.5-8-5.5-13.1c0-6.7,2.8-11.8,8.4-15.2v-0.8
		c9-6.7,17.1-15.6,24.4-26.5c7.3-11,11-21.2,11-30.8V323c0-12.4,7.6-24.7,22.8-37.1c15.2-12.4,28.9-19.4,41.3-21.1
		c0-6.2,2.5-11.2,7.6-15.2c5.1-3.9,9.8-5.9,14.3-5.9c4.5,0,9.3,2,14.3,5.9c5.1,3.9,7.6,9,7.6,15.2c12.4,1.7,26.1,8.7,41.3,21.1
		c15.2,12.4,22.8,24.7,22.8,37.1v65.7c0,9.6,3.7,19.8,11,30.8c7.3,11,15.4,19.8,24.4,26.5v0.8c5.6,3.9,8.4,9,8.4,15.2
		c0,5.1-1.8,9.4-5.5,13.1C426.5,478.8,422.1,480.6,417.1,480.6z M333.2,533.7c-7.6,7.9-16.7,11.8-27.4,11.8
		c-10.7,0-19.8-3.9-27.4-11.8c-7.6-7.9-12.8-18.2-15.6-31.2h86C346,515.5,340.8,525.9,333.2,533.7z"/>
</g>
</svg>
