<?xml version="1.0" encoding="utf-8"?>
<!-- Generator: Adobe Illustrator 18.1.0, SVG Export Plug-In . SVG Version: 6.00 Build 0)  -->
<!DOCTYPE svg PUBLIC "-//W3C//DTD SVG 1.1//EN" "http://www.w3.org/Graphics/SVG/1.1/DTD/svg11.dtd">
<svg version="1.1" id="Layer_1" xmlns="http://www.w3.org/2000/svg" xmlns:xlink="http://www.w3.org/1999/xlink" x="0px" y="0px"
	 viewBox="0 0 508 98.2" enable-background="new 0 0 508 98.2" xml:space="preserve">
<g>
	<path fill="#FFFFFF" d="M50.5,50v25.9H37V49.6c0-3.8-0.6-6.6-1.7-8.4c-1.2-1.8-3-2.7-5.6-2.7c-2.6,0-4.9,1-6.9,2.9
		c-2,1.9-3,4.8-3,8.5v25.9H6.3V27.8h13.4v5.4c3.7-4.2,7.9-6.3,12.7-6.3c3,0,5.8,0.9,8.3,2.7c2.5,1.8,4.3,4,5.6,6.5
		c1.8-2.9,4.3-5.2,7.5-6.8c3.1-1.6,6.3-2.4,9.4-2.4c5.7,0,10.2,1.7,13.7,5c3.5,3.4,5.2,8.2,5.2,14.6v29.2H68.5V49.6
		c0-7.4-2.7-11.1-8.1-11.1c-2.7,0-5,1-7,2.9C51.5,43.4,50.5,46.2,50.5,50z"/>
	<path fill="#FFFFFF" d="M140.4,51.9c0,7-2.4,12.8-7.2,17.6c-4.8,4.8-10.9,7.1-18.2,7.1c-7.3,0-13.4-2.4-18.2-7.1
		c-4.8-4.8-7.2-10.6-7.2-17.6c0-7,2.4-12.8,7.2-17.6c4.8-4.8,10.9-7.2,18.2-7.2c7.3,0,13.4,2.4,18.2,7.2
		C138,39,140.4,44.9,140.4,51.9z M103.1,51.9c0,3.9,1.1,7.1,3.3,9.6c2.2,2.5,5.1,3.7,8.6,3.7c3.5,0,6.3-1.2,8.6-3.7
		c2.2-2.5,3.4-5.7,3.4-9.6s-1.1-7.1-3.4-9.6c-2.2-2.5-5.1-3.8-8.6-3.8c-3.5,0-6.3,1.2-8.6,3.8C104.2,44.7,103.1,47.9,103.1,51.9z"/>
	<path fill="#FFFFFF" d="M148.8,38.9V27.8h38.8v10.5l-23.3,26.4h24.7v11.2h-41.8V64.8l22.7-25.9H148.8z"/>
	<path fill="#FFFFFF" d="M212.1,75.9l-19-48.2H207L219,58l12-30.3h13.9l-19,48.2H212.1z"/>
	<path fill="#FFFFFF" d="M277.7,39.6c-4,0-7,1.4-8.9,4.2c-2,2.8-2.9,6.6-2.9,11.2v20.8h-13.4V27.8h13.4v6.3c1.7-2,3.9-3.6,6.5-5
		c2.6-1.4,5.2-2.1,7.9-2.1l0.1,12.6H277.7z"/>
	<path fill="#FFFFFF" d="M290.6,74.6c-1.3-1.3-1.9-2.9-1.9-4.7c0-1.8,0.6-3.4,1.9-4.7c1.3-1.3,2.8-1.9,4.7-1.9
		c1.8,0,3.4,0.6,4.7,1.9c1.3,1.3,2,2.8,2,4.7c0,1.8-0.7,3.4-2,4.7c-1.3,1.3-2.9,2-4.7,2C293.4,76.6,291.8,76,290.6,74.6z"/>
	<path fill="#FFFFFF" d="M336.1,76.6c-6.6,0-12.3-2.2-17.1-6.7c-4.8-4.5-7.1-10.4-7.1-17.6c0-7.3,2.5-13.2,7.5-17.7
		c5-4.6,11-6.8,18.2-6.8c7.1,0,13.2,2.5,18.1,7.4l-5.9,7.2c-4.1-3.6-8.2-5.4-12.4-5.4c-4.2,0-7.8,1.4-10.9,4.2
		c-3.1,2.8-4.6,6.3-4.6,10.7c0,4.4,1.5,8.1,4.6,11.1s6.8,4.6,11.2,4.6c4.4,0,8.6-2,12.6-6.1l5.9,6.4
		C350.3,73.7,343.6,76.6,336.1,76.6z"/>
	<path fill="#FFFFFF" d="M405.2,69.5c-4.8,4.7-10.7,7.1-17.9,7.1c-7.1,0-13.1-2.4-17.9-7.1c-4.8-4.7-7.1-10.5-7.1-17.4
		c0-6.8,2.4-12.6,7.1-17.4c4.8-4.7,10.7-7.1,17.9-7.1c7.1,0,13.1,2.4,17.9,7.1c4.8,4.7,7.1,10.5,7.1,17.4
		C412.4,59,410,64.8,405.2,69.5z M376.6,63.3c2.8,2.9,6.4,4.3,10.8,4.3c4.3,0,7.9-1.4,10.8-4.3c2.8-2.9,4.2-6.6,4.2-11.2
		c0-4.6-1.4-8.3-4.2-11.2c-2.8-2.9-6.4-4.3-10.8-4.3c-4.3,0-7.9,1.4-10.8,4.3c-2.8,2.9-4.2,6.6-4.2,11.2
		C372.3,56.7,373.8,60.5,376.6,63.3z"/>
	<path fill="#FFFFFF" d="M431,50.2v25.7h-10V28.4h10V37c1.4-2.9,3.6-5.2,6.5-6.9c2.9-1.7,6-2.5,9.3-2.5c7.5,0,12.6,3.1,15.3,9.3
		c4.7-6.2,10.6-9.3,17.6-9.3c5.4,0,9.7,1.6,13,4.9c3.3,3.3,5,8,5,14.2v29.1h-10V49.8c0-8.8-3.6-13.1-10.9-13.1
		c-3.4,0-6.4,1.1-8.9,3.3c-2.5,2.2-3.9,5.3-4,9.5v26.4h-10V49.8c0-4.5-0.8-7.8-2.4-10c-1.6-2.1-4.1-3.2-7.6-3.2
		c-3.5,0-6.5,1.1-9,3.4C432.3,42.4,431,45.8,431,50.2z"/>
</g>
<g>
</g>
<g>
</g>
<g>
</g>
<g>
</g>
<g>
</g>
<g>
</g>
</svg>
