<?xml version="1.0" encoding="utf-8"?>
<!-- Generator: Adobe Illustrator 18.1.0, SVG Export Plug-In . SVG Version: 6.00 Build 0)  -->
<!DOCTYPE svg PUBLIC "-//W3C//DTD SVG 1.1//EN" "http://www.w3.org/Graphics/SVG/1.1/DTD/svg11.dtd">
<svg version="1.1" id="Layer_1" xmlns="http://www.w3.org/2000/svg" xmlns:xlink="http://www.w3.org/1999/xlink" x="0px" y="0px"
	 viewBox="0 0 85 85" enable-background="new 0 0 85 85" xml:space="preserve">
<g>
	<path fill="#FFFFFF" d="M18.2,18.2c8.4-8.4,22.1-8.4,30.6,0s8.4,22.1,0,30.6s-22.1,8.4-30.6,0S9.7,26.6,18.2,18.2 M9.8,9.8
		C-3.3,22.9-3.3,44,9.8,57.1c13.1,13.1,34.2,13.1,47.3,0c13.1-13.1,13.1-34.2,0-47.3C44-3.3,22.9-3.3,9.8,9.8L9.8,9.8z"/>
	
		<rect x="62.4" y="55" transform="matrix(0.7071 -0.7071 0.7071 0.7071 -28.8303 69.6025)" fill="#FFFFFF" width="14.4" height="29.3"/>
</g>
</svg>
